<svg width="32" height="32" viewBox="0 0 32 32" fill="none" xmlns="http://www.w3.org/2000/svg">
<g clip-path="url(#clip0_302_28336)">
<path opacity="0.2" d="M26.72 5.37334C26.869 5.32987 27.0261 5.3217 27.1789 5.34947C27.3316 5.37724 27.4758 5.4402 27.6 5.53334C27.7242 5.62649 27.825 5.74727 27.8944 5.88613C27.9639 6.02499 28 6.1781 28 6.33334V23.6667C28 23.8219 27.9639 23.975 27.8944 24.1139C27.825 24.2527 27.7242 24.3735 27.6 24.4667C27.4758 24.5598 27.3316 24.6228 27.1789 24.6505C27.0261 24.6783 26.869 24.6701 26.72 24.6267L14.9993 21.2081V8.79188L26.72 5.37334Z" fill="#0A65CC"/>
<path d="M28 6.33334V23.6667C28 23.8219 27.9639 23.975 27.8944 24.1139C27.825 24.2527 27.7242 24.3735 27.6 24.4667C27.4758 24.5598 27.3316 24.6228 27.1789 24.6505C27.0261 24.6783 26.869 24.6701 26.72 24.6267L4.72 18.21C4.51228 18.1494 4.32982 18.0231 4.2 17.85C4.07018 17.6769 4 17.4664 4 17.25V12.75C4 12.5336 4.07018 12.3231 4.2 12.15C4.32982 11.9769 4.51228 11.8506 4.72 11.79L26.72 5.37334C26.869 5.32987 27.0261 5.3217 27.1789 5.34947C27.3316 5.37724 27.4758 5.4402 27.6 5.53334C27.7242 5.62649 27.825 5.74727 27.8944 5.88613C27.9639 6.02499 28 6.1781 28 6.33334V6.33334Z" stroke="#0A65CC" stroke-width="2" stroke-linecap="round" stroke-linejoin="round"/>
<path d="M9 19.4582V24C9 24.2652 9.10536 24.5196 9.29289 24.7071C9.48043 24.8947 9.73478 25 10 25H14C14.2652 25 14.5196 24.8947 14.7071 24.7071C14.8946 24.5196 15 24.2652 15 24V8.7919" stroke="#0A65CC" stroke-width="2" stroke-linecap="round" stroke-linejoin="round"/>
</g>
<defs>
<clipPath id="clip0_302_28336">
<rect width="32" height="32" fill="white" transform="matrix(-1 0 0 1 32 0)"/>
</clipPath>
</defs>
</svg>
