<svg width="32" height="32" viewBox="0 0 32 32" fill="none" xmlns="http://www.w3.org/2000/svg">
<path opacity="0.2" d="M25 15.0007L22.2026 7.54111C22.141 7.3768 22.0373 7.23159 21.9018 7.12008C21.7663 7.00856 21.6038 6.93467 21.4307 6.90583L4 4.0007L6.90515 21.4314C6.934 21.6045 7.00788 21.767 7.11939 21.9025C7.2309 22.038 7.3761 22.1417 7.5404 22.2033L15 25.0007L25 15.0007ZM12.0004 14.5C12.0004 14.0055 12.147 13.5222 12.4218 13.111C12.6965 12.6999 13.0869 12.3795 13.5437 12.1903C14.0005 12.0011 14.5032 11.9515 14.9882 12.048C15.4731 12.1445 15.9186 12.3826 16.2682 12.7322C16.6178 13.0818 16.8559 13.5273 16.9524 14.0122C17.0489 14.4972 16.9993 14.9999 16.8101 15.4567C16.6209 15.9135 16.3005 16.3039 15.8894 16.5786C15.4782 16.8534 14.9949 17 14.5004 17C14.1721 17 13.847 16.9353 13.5437 16.8097C13.2404 16.684 12.9648 16.4999 12.7327 16.2677C12.5005 16.0356 12.3164 15.76 12.1907 15.4567C12.0651 15.1534 12.0004 14.8283 12.0004 14.5Z" fill="#0A65CC"/>
<path d="M12 14.5C12 15.8807 13.1193 17 14.5 17C15.8807 17 17 15.8807 17 14.5C17 13.1193 15.8807 12 14.5 12C13.1193 12 12 13.1193 12 14.5Z" stroke="#0A65CC" stroke-width="2" stroke-linecap="round" stroke-linejoin="round"/>
<path d="M3.99781 4.00073L12.7305 12.7322" stroke="#0A65CC" stroke-width="2" stroke-linecap="round" stroke-linejoin="round"/>
<path d="M4 4.00073L6.90513 21.4314C6.93398 21.6045 7.00787 21.767 7.11938 21.9025C7.23089 22.038 7.37609 22.1418 7.5404 22.2034L15 25.0007L25 15.0007L22.2026 7.54112C22.141 7.37682 22.0373 7.23161 21.9018 7.1201C21.7663 7.00859 21.6038 6.9347 21.4307 6.90585L4 4.00073Z" stroke="#0A65CC" stroke-width="2" stroke-linecap="round" stroke-linejoin="round"/>
<path d="M15.0001 25.0007L18.293 28.2936C18.3859 28.3865 18.4961 28.4601 18.6175 28.5104C18.7388 28.5607 18.8688 28.5865 19.0001 28.5865C19.1315 28.5865 19.2615 28.5607 19.3828 28.5104C19.5042 28.4601 19.6144 28.3865 19.7073 28.2936L28.293 19.7078C28.4806 19.5203 28.5859 19.2659 28.5859 19.0007C28.5859 18.7355 28.4806 18.4812 28.293 18.2936L25.0001 15.0007" stroke="#0A65CC" stroke-width="2" stroke-linecap="round" stroke-linejoin="round"/>
</svg>
