<svg width="32" height="32" viewBox="0 0 32 32" fill="none" xmlns="http://www.w3.org/2000/svg">
<g clip-path="url(#clip0_302_28374)">
<path opacity="0.2" d="M27 9.00006H5C4.44772 9.00006 4 9.44778 4 10.0001V26.0001C4 26.5523 4.44772 27.0001 5 27.0001H27C27.5523 27.0001 28 26.5523 28 26.0001V10.0001C28 9.44778 27.5523 9.00006 27 9.00006Z" fill="#0A65CC"/>
<path d="M16 14.5V21.5" stroke="#0A65CC" stroke-width="2" stroke-linecap="round" stroke-linejoin="round"/>
<path d="M19.5 18H12.5" stroke="#0A65CC" stroke-width="2" stroke-linecap="round" stroke-linejoin="round"/>
<path d="M27 9.00006H5C4.44772 9.00006 4 9.44778 4 10.0001V26.0001C4 26.5523 4.44772 27.0001 5 27.0001H27C27.5523 27.0001 28 26.5523 28 26.0001V10.0001C28 9.44778 27.5523 9.00006 27 9.00006Z" stroke="#0A65CC" stroke-width="2" stroke-linecap="round" stroke-linejoin="round"/>
<path d="M21 9V7C21 6.46957 20.7893 5.96086 20.4142 5.58579C20.0391 5.21071 19.5304 5 19 5H13C12.4696 5 11.9609 5.21071 11.5858 5.58579C11.2107 5.96086 11 6.46957 11 7V9" stroke="#0A65CC" stroke-width="2" stroke-linecap="round" stroke-linejoin="round"/>
</g>
<defs>
<clipPath id="clip0_302_28374">
<rect width="32" height="32" fill="white"/>
</clipPath>
</defs>
</svg>
